<svg width="601pt" height="171pt" viewBox="0.00 0.00 600.57 171.36" xmlns="http://www.w3.org/2000/svg" xmlns:xlink="http://www.w3.org/1999/xlink">
<g id="graph0" class="graph" transform="scale(1 1) rotate(0) translate(4 167.36)">
<title>G</title>
<polygon fill="white" stroke="none" points="-4,4 -4,-167.36 596.57,-167.36 596.57,4 -4,4"/>
<!-- NIEAKTYWNY -->
<g id="node1" class="node">
<title>NIEAKTYWNY</title>
<ellipse fill="none" stroke="black" cx="77.01" cy="-72.82" rx="77.01" ry="18"/>
<text text-anchor="middle" x="77.01" y="-68.62" font-family="Times,serif" font-size="14.00">NIEAKTYWNY</text>
</g>
<!-- NIEAKTYWNY&#45;&gt;NIEAKTYWNY -->
<g id="edge2" class="edge">
<title>NIEAKTYWNY-&gt;NIEAKTYWNY</title>
<path fill="none" stroke="black" d="M55.77,-90.6C52.16,-100.14 59.24,-108.82 77.01,-108.82 87,-108.82 93.62,-106.07 96.85,-101.97"/>
<polygon fill="black" stroke="black" points="100.31,-102.46 98.06,-92.11 93.36,-101.6 100.31,-102.46"/>
<text text-anchor="middle" x="77.01" y="-113.02" font-family="Times,serif" font-size="14.00">Σ∖{'typ'}</text>
</g>
<!-- PO_TYPIE -->
<g id="node2" class="node">
<title>PO_TYPIE</title>
<ellipse fill="none" stroke="black" cx="310.41" cy="-125.82" rx="55.57" ry="18"/>
<text text-anchor="middle" x="310.41" y="-121.62" font-family="Times,serif" font-size="14.00">PO_TYPIE</text>
</g>
<!-- NIEAKTYWNY&#45;&gt;PO_TYPIE -->
<g id="edge1" class="edge">
<title>NIEAKTYWNY-&gt;PO_TYPIE</title>
<path fill="none" stroke="black" d="M95.48,-90.78C113.02,-107.41 141.74,-131.02 172.02,-140.82 199.98,-149.88 232.64,-146.83 259.1,-141.19"/>
<polygon fill="black" stroke="black" points="259.61,-144.67 268.56,-138.99 258.02,-137.85 259.61,-144.67"/>
<text text-anchor="middle" x="195.15" y="-150.76" font-family="Times,serif" font-size="14.00">'typ'</text>
</g>
<!-- PO_TYPIE&#45;&gt;NIEAKTYWNY -->
<g id="edge4" class="edge">
<title>PO_TYPIE-&gt;NIEAKTYWNY</title>
<path fill="none" stroke="black" d="M265.91,-114.75C250.85,-111 233.85,-106.84 218.29,-103.22 194.93,-97.79 169.3,-92.15 146.42,-87.22"/>
<polygon fill="black" stroke="black" points="147.42,-83.86 136.91,-85.18 145.95,-90.7 147.42,-83.86"/>
<text text-anchor="middle" x="195.15" y="-124.22" font-family="Times,serif" font-size="14.00">Σ∖{ID}</text>
<text text-anchor="middle" x="195.15" y="-107.42" font-family="Times,serif" font-size="14.00"> (BŁĄD)</text>
</g>
<!-- PO_TYPIE_I_ID -->
<g id="node3" class="node">
<title>PO_TYPIE_I_ID</title>
<ellipse fill="none" stroke="black" cx="513.94" cy="-45.82" rx="78.63" ry="18"/>
<text text-anchor="middle" x="513.94" y="-41.62" font-family="Times,serif" font-size="14.00">PO_TYPIE_I_ID</text>
</g>
<!-- PO_TYPIE&#45;&gt;PO_TYPIE_I_ID -->
<g id="edge3" class="edge">
<title>PO_TYPIE-&gt;PO_TYPIE_I_ID</title>
<path fill="none" stroke="black" d="M348.84,-112.58C369.19,-105.24 394.74,-95.81 417.31,-86.82 433.26,-80.47 450.55,-73.18 465.99,-66.53"/>
<polygon fill="black" stroke="black" points="467.17,-69.83 474.95,-62.64 464.38,-63.41 467.17,-69.83"/>
<text text-anchor="middle" x="409.92" y="-96.62" font-family="Times,serif" font-size="14.00">ID</text>
</g>
<!-- PO_TYPIE_I_ID&#45;&gt;NIEAKTYWNY -->
<g id="edge5" class="edge">
<title>PO_TYPIE_I_ID-&gt;NIEAKTYWNY</title>
<path fill="none" stroke="black" d="M437.7,-50.49C361.12,-55.25 242.64,-62.6 162.79,-67.56"/>
<polygon fill="black" stroke="black" points="163.06,-64.03 153.3,-68.15 163.5,-71.02 163.06,-64.03"/>
<text text-anchor="middle" x="310.41" y="-67.08" font-family="Times,serif" font-size="14.00">'{' (nowy typ strukturalny)</text>
</g>
<!-- PO_TYPIE_I_ID&#45;&gt;NIEAKTYWNY -->
<g id="edge6" class="edge">
<title>PO_TYPIE_I_ID-&gt;NIEAKTYWNY</title>
<path fill="none" stroke="black" d="M443.39,-37.62C424.34,-35.72 403.66,-33.97 384.53,-33.02 318.73,-29.75 301.68,-24.93 236.29,-33.02 202.13,-37.25 164.75,-46.43 134.89,-54.91"/>
<polygon fill="black" stroke="black" points="133.93,-51.54 125.3,-57.69 135.88,-58.27 133.93,-51.54"/>
<text text-anchor="middle" x="310.41" y="-37.22" font-family="Times,serif" font-size="14.00">'jak' (nowy alias typu)</text>
</g>
<!-- PO_TYPIE_I_ID&#45;&gt;NIEAKTYWNY -->
<g id="edge7" class="edge">
<title>PO_TYPIE_I_ID-&gt;NIEAKTYWNY</title>
<path fill="none" stroke="black" d="M471.39,-30.3C446.58,-21.86 414.2,-12.3 384.53,-8.02 319.32,1.38 301.14,3.6 236.29,-8.02 194.14,-15.57 149.26,-35.18 118.09,-50.86"/>
<polygon fill="black" stroke="black" points="116.71,-47.63 109.42,-55.31 119.91,-53.86 116.71,-47.63"/>
<text text-anchor="middle" x="310.41" y="-12.22" font-family="Times,serif" font-size="14.00">Σ∖{'{', 'jak'} (BŁĄD)</text>
</g>
</g>
</svg>