<?xml version="1.0" encoding="UTF-8" standalone="no"?>
<!DOCTYPE svg PUBLIC "-//W3C//DTD SVG 1.1//EN" "http://www.w3.org/Graphics/SVG/1.1/DTD/svg11.dtd">
<!-- Generated by graphviz version 2.40.1 (20161225.0304)
 -->
<!-- Title: G Pages: 1 -->
<svg width="427pt" height="270pt" viewBox="0.00 0.00 427.00 269.60" xmlns="http://www.w3.org/2000/svg" xmlns:xlink="http://www.w3.org/1999/xlink">
<g id="graph0" class="graph" transform="scale(1 1) rotate(0) translate(4 265.6)">
<title>G</title>
<polygon fill="#ffffff" stroke="transparent" points="-4,4 -4,-265.6 423,-265.6 423,4 -4,4"/>
<text text-anchor="middle" x="209.5" y="-8.2" font-family="Times,serif" font-size="14.00" fill="#000000">Konwersje rozszerzające (ciągłe linie) i zwężające (przerywane)</text>
<g id="clust1" class="cluster">
<title>cluster_podst</title>
<polygon fill="none" stroke="#000000" points="8,-32.8 8,-253.6 110,-253.6 110,-32.8 8,-32.8"/>
<text text-anchor="middle" x="59" y="-41" font-family="Times,serif" font-size="14.00" fill="#000000">wpisane jawnie</text>
</g>
<g id="clust2" class="cluster">
<title>cluster_generowane</title>
<polygon fill="none" stroke="#000000" points="118,-32.8 118,-253.6 411,-253.6 411,-32.8 118,-32.8"/>
<text text-anchor="middle" x="264.5" y="-41" font-family="Times,serif" font-size="14.00" fill="#000000">generowane dla każdego typu wskaźnikowego</text>
</g>
<!-- znak -->
<g id="node1" class="node">
<title>znak</title>
<ellipse fill="none" stroke="#000000" cx="49" cy="-83.6" rx="29.0356" ry="18"/>
<text text-anchor="middle" x="49" y="-79.4" font-family="Times,serif" font-size="14.00" fill="#000000">znak</text>
</g>
<!-- całk -->
<g id="node2" class="node">
<title>całk</title>
<ellipse fill="none" stroke="#000000" cx="49" cy="-155.6" rx="30.135" ry="18"/>
<text text-anchor="middle" x="49" y="-151.4" font-family="Times,serif" font-size="14.00" fill="#000000">całk</text>
</g>
<!-- znak&#45;&gt;całk -->
<g id="edge1" class="edge">
<title>znak-&gt;całk</title>
<path fill="none" stroke="#000000" d="M43.0843,-101.3978C42.2945,-109.2729 42.0655,-118.725 42.3971,-127.5148"/>
<polygon fill="#000000" stroke="#000000" points="38.9224,-128.0124 43.0798,-137.7575 45.9069,-127.5468 38.9224,-128.0124"/>
</g>
<!-- rzecz -->
<g id="node3" class="node">
<title>rzecz</title>
<ellipse fill="none" stroke="#000000" cx="49" cy="-227.6" rx="31.2967" ry="18"/>
<text text-anchor="middle" x="49" y="-223.4" font-family="Times,serif" font-size="14.00" fill="#000000">rzecz</text>
</g>
<!-- znak&#45;&gt;rzecz -->
<g id="edge2" class="edge">
<title>znak-&gt;rzecz</title>
<path fill="none" stroke="#000000" d="M64.2805,-99.1116C73.0813,-109.1724 83.3034,-123.0755 88,-137.6 92.9227,-152.8239 92.9227,-158.3761 88,-173.6 84.4948,-184.4401 77.9118,-194.934 71.139,-203.7429"/>
<polygon fill="#000000" stroke="#000000" points="68.3093,-201.6741 64.6815,-211.6285 73.7251,-206.1091 68.3093,-201.6741"/>
</g>
<!-- całk&#45;&gt;znak -->
<g id="edge4" class="edge">
<title>całk-&gt;znak</title>
<path fill="none" stroke="#000000" stroke-dasharray="1,5" d="M54.9202,-137.7575C55.7078,-129.8764 55.9348,-120.4226 55.601,-111.6353"/>
<polygon fill="#000000" stroke="#000000" points="59.0759,-111.1417 54.9157,-101.3978 52.0915,-111.6092 59.0759,-111.1417"/>
</g>
<!-- całk&#45;&gt;rzecz -->
<g id="edge3" class="edge">
<title>całk-&gt;rzecz</title>
<path fill="none" stroke="#000000" d="M43.0843,-173.3978C42.2945,-181.2729 42.0655,-190.725 42.3971,-199.5148"/>
<polygon fill="#000000" stroke="#000000" points="38.9224,-200.0124 43.0798,-209.7575 45.9069,-199.5468 38.9224,-200.0124"/>
</g>
<!-- rzecz&#45;&gt;całk -->
<g id="edge5" class="edge">
<title>rzecz-&gt;całk</title>
<path fill="none" stroke="#000000" stroke-dasharray="1,5" d="M54.9202,-209.7575C55.7078,-201.8764 55.9348,-192.4226 55.601,-183.6353"/>
<polygon fill="#000000" stroke="#000000" points="59.0759,-183.1417 54.9157,-173.3978 52.0915,-183.6092 59.0759,-183.1417"/>
</g>
<!-- wskaźnikowe -->
<g id="node4" class="node">
<title>wskaźnikowe</title>
<ellipse fill="none" stroke="#000000" cx="254" cy="-155.6" rx="111.1519" ry="18"/>
<text text-anchor="middle" x="254" y="-151.4" font-family="Times,serif" font-size="14.00" fill="#000000">∀T:T.jestWskaźnikiem()</text>
</g>
<!-- cośwsk -->
<g id="node5" class="node">
<title>cośwsk</title>
<ellipse fill="none" stroke="#000000" cx="254" cy="-227.6" rx="30.1189" ry="18"/>
<text text-anchor="middle" x="254" y="-223.4" font-family="Times,serif" font-size="14.00" fill="#000000">coś^</text>
</g>
<!-- wskaźnikowe&#45;&gt;cośwsk -->
<g id="edge7" class="edge">
<title>wskaźnikowe-&gt;cośwsk</title>
<path fill="none" stroke="#000000" d="M248.0476,-173.7686C247.2856,-181.5875 247.0696,-190.9077 247.3995,-199.5779"/>
<polygon fill="#000000" stroke="#000000" points="243.9159,-199.9413 248.0727,-209.6866 250.9004,-199.4761 243.9159,-199.9413"/>
</g>
<!-- cośwsk&#45;&gt;wskaźnikowe -->
<g id="edge8" class="edge">
<title>cośwsk-&gt;wskaźnikowe</title>
<path fill="none" stroke="#000000" stroke-dasharray="1,5" d="M259.9273,-209.6866C260.7012,-201.9007 260.9291,-192.59 260.6111,-183.9059"/>
<polygon fill="#000000" stroke="#000000" points="264.0935,-183.5206 259.9524,-173.7686 257.1082,-183.9746 264.0935,-183.5206"/>
</g>
<!-- TpPustegoWsk -->
<g id="node6" class="node">
<title>TpPustegoWsk</title>
<ellipse fill="none" stroke="#000000" cx="300" cy="-83.6" rx="56.7447" ry="18"/>
<text text-anchor="middle" x="300" y="-79.4" font-family="Times,serif" font-size="14.00" fill="#000000">TpPustego^</text>
</g>
<!-- TpPustegoWsk&#45;&gt;wskaźnikowe -->
<g id="edge6" class="edge">
<title>TpPustegoWsk-&gt;wskaźnikowe</title>
<path fill="none" stroke="#000000" d="M288.6292,-101.3978C283.3065,-109.729 276.8561,-119.8252 270.9721,-129.035"/>
<polygon fill="#000000" stroke="#000000" points="267.994,-127.1955 265.5595,-137.5069 273.8929,-130.9643 267.994,-127.1955"/>
</g>
<!-- TpPustegoWsk&#45;&gt;cośwsk -->
<g id="edge9" class="edge">
<title>TpPustegoWsk-&gt;cośwsk</title>
<path fill="none" stroke="#000000" d="M332.7583,-98.5001C348.2726,-107.4424 365.2813,-120.4444 374,-137.6 381.249,-151.8637 382.6875,-160.164 374,-173.6 356.3236,-200.938 321.1442,-214.573 293.4245,-221.2896"/>
<polygon fill="#000000" stroke="#000000" points="292.6038,-217.8864 283.5957,-223.4636 294.1157,-224.7212 292.6038,-217.8864"/>
</g>
</g>
</svg>