<svg width="1201pt" height="1140pt" viewBox="0.00 0.00 1201.48 1139.80" xmlns="http://www.w3.org/2000/svg" xmlns:xlink="http://www.w3.org/1999/xlink">
<g id="graph0" class="graph" transform="scale(1 1) rotate(0) translate(4 1135.8)">
<title>CFG for 'program' function</title>
<polygon fill="white" stroke="none" points="-4,4 -4,-1135.8 1197.48,-1135.8 1197.48,4 -4,4"/>
<text text-anchor="middle" x="596.74" y="-8.2" font-family="Times,serif" font-size="14.00">CFG for 'program' function</text>
<!-- Node0x21c0acfa0a0 -->
<g id="node1" class="node">
<title>Node0x21c0acfa0a0</title>
<polygon fill="#d65244" fill-opacity="0.439216" stroke="#3d50c3" points="492.63,-980.9 492.63,-1131.3 785.87,-1131.3 785.87,-980.9 492.63,-980.9"/>
<text text-anchor="start" x="500.63" y="-1114.7" font-family="Courier,monospace" font-size="14.00">wejscie:</text>
<polyline fill="none" stroke="#3d50c3" points="492.63,-1106.5 785.87,-1106.5"/>
<text text-anchor="start" x="500.63" y="-1089.9" font-family="Courier,monospace" font-size="14.00">%i = alloca i64, align 8</text>
<text text-anchor="start" x="500.63" y="-1073.1" font-family="Courier,monospace" font-size="14.00"> %argw = alloca ptr, align 8</text>
<text text-anchor="start" x="500.63" y="-1056.3" font-family="Courier,monospace" font-size="14.00"> %w = alloca i64, align 8</text>
<text text-anchor="start" x="500.63" y="-1039.5" font-family="Courier,monospace" font-size="14.00"> %argl = alloca i64, align 8</text>
<text text-anchor="start" x="500.63" y="-1022.7" font-family="Courier,monospace" font-size="14.00"> store i64 %0, ptr %argl, align 4</text>
<text text-anchor="start" x="500.63" y="-1005.9" font-family="Courier,monospace" font-size="14.00"> store ptr %1, ptr %argw, align 8</text>
<text text-anchor="start" x="500.63" y="-989.1" font-family="Courier,monospace" font-size="14.00"> br label %drugiBlok</text>
</g>
<!-- Node0x21c0acfa100 -->
<g id="node2" class="node">
<title>Node0x21c0acfa100</title>
<polygon fill="#d65244" fill-opacity="0.439216" stroke="#3d50c3" points="463.22,-894.3 463.22,-943.9 815.28,-943.9 815.28,-894.3 463.22,-894.3"/>
<text text-anchor="start" x="471.22" y="-927.3" font-family="Courier,monospace" font-size="14.00">drugiBlok:</text>
<polyline fill="none" stroke="#3d50c3" points="463.22,-919.1 815.28,-919.1"/>
<text text-anchor="start" x="471.22" y="-902.5" font-family="Courier,monospace" font-size="14.00">br label %"pierwszy_po_program_4:6-4:52"</text>
</g>
<!-- Node0x21c0acfa0a0&#45;&gt;Node0x21c0acfa100 -->
<g id="edge1" class="edge">
<title>Node0x21c0acfa0a0-&gt;Node0x21c0acfa100</title>
<g id="a_edge1"><a xlink:title="wejscie -&gt; drugiBlok&#xA;Probability 100.00%">
<path fill="none" stroke="black" d="M639.25,-980.49C639.25,-971.93 639.25,-963.52 639.25,-955.82"/>
<polygon fill="black" stroke="black" points="642.75,-955.91 639.25,-945.91 635.75,-955.91 642.75,-955.91"/>
</a>
</g>
</g>
<!-- Node0x21c0acfa160 -->
<g id="node3" class="node">
<title>Node0x21c0acfa160</title>
<polygon fill="#d65244" fill-opacity="0.439216" stroke="#3d50c3" points="637.62,-790.9 637.62,-857.3 1014.88,-857.3 1014.88,-790.9 637.62,-790.9"/>
<text text-anchor="start" x="645.62" y="-840.7" font-family="Courier,monospace" font-size="14.00">"pierwszy_po_program_4:6-4:52":</text>
<polyline fill="none" stroke="#3d50c3" points="637.62,-832.5 1014.88,-832.5"/>
<text text-anchor="start" x="645.62" y="-815.9" font-family="Courier,monospace" font-size="14.00">store i64 0, ptr %i, align 4</text>
<text text-anchor="start" x="645.62" y="-799.1" font-family="Courier,monospace" font-size="14.00"> br label %"ptl_oblicznie_warunku_5:14-9:4"</text>
</g>
<!-- Node0x21c0acfa100&#45;&gt;Node0x21c0acfa160 -->
<g id="edge2" class="edge">
<title>Node0x21c0acfa100-&gt;Node0x21c0acfa160</title>
<g id="a_edge2"><a xlink:title="drugiBlok -&gt; pierwszy_po_program_4:6-4:52&#xA;Probability 100.00%">
<path fill="none" stroke="black" d="M687.9,-893.91C706.96,-884.43 729.29,-873.32 750.37,-862.84"/>
<polygon fill="black" stroke="black" points="751.85,-866.01 759.25,-858.42 748.74,-859.74 751.85,-866.01"/>
</a>
</g>
</g>
<!-- Node0x21c0ad0c090 -->
<g id="node5" class="node">
<title>Node0x21c0ad0c090</title>
<polygon fill="#b70d28" fill-opacity="0.439216" stroke="#b70d28" points="511.6,-578.7 511.6,-753.9 1140.9,-753.9 1140.9,-578.7 511.6,-578.7"/>
<text text-anchor="start" x="519.6" y="-737.3" font-family="Courier,monospace" font-size="14.00">"ptl_oblicznie_warunku_5:14-9:4":</text>
<polyline fill="none" stroke="#b70d28" points="511.6,-729.1 1140.9,-729.1"/>
<text text-anchor="start" x="519.6" y="-712.5" font-family="Courier,monospace" font-size="14.00">%i_wt = load i64, ptr %i, align 4</text>
<text text-anchor="start" x="519.6" y="-695.7" font-family="Courier,monospace" font-size="14.00"> %argl_wt = load i64, ptr %argl, align 4</text>
<text text-anchor="start" x="519.6" y="-678.9" font-family="Courier,monospace" font-size="14.00"> %"opProstai&lt;" = icmp slt i64 %i_wt, %argl_wt</text>
<text text-anchor="start" x="519.6" y="-662.1" font-family="Courier,monospace" font-size="14.00"> %"opprostai_rozsz&lt;" = zext i1 %"opProstai&lt;" to i64</text>
<text text-anchor="start" x="519.6" y="-645.3" font-family="Courier,monospace" font-size="14.00"> %ptl__zwezenie_dla_warunku = icmp ne i64 %"opprostai_rozsz&lt;", 0</text>
<text text-anchor="start" x="519.6" y="-628.5" font-family="Courier,monospace" font-size="14.00"> br i1 %ptl__zwezenie_dla_warunku, label %"pierwszyPetli_5:14-9:4", label</text>
<text text-anchor="start" x="519.6" y="-611.7" font-family="Courier,monospace" font-size="14.00">... %"poPetli_5:14-9:4"</text>
<polyline fill="none" stroke="#b70d28" points="511.6,-603.5 1140.9,-603.5"/>
<text text-anchor="middle" x="668.8" y="-586.9" font-family="Courier,monospace" font-size="14.00">T</text>
<polyline fill="none" stroke="#b70d28" points="826,-578.7 826,-603.5"/>
<text text-anchor="middle" x="983.2" y="-586.9" font-family="Courier,monospace" font-size="14.00">F</text>
</g>
<!-- Node0x21c0acfa160&#45;&gt;Node0x21c0ad0c090 -->
<g id="edge4" class="edge">
<title>Node0x21c0acfa160-&gt;Node0x21c0ad0c090</title>
<g id="a_edge4"><a xlink:title="pierwszy_po_program_4:6-4:52 -&gt; ptl_oblicznie_warunku_5:14-9:4&#xA;Probability 100.00%">
<path fill="none" stroke="black" d="M826.25,-790.44C826.25,-782.85 826.25,-774.38 826.25,-765.53"/>
<polygon fill="black" stroke="black" points="829.75,-765.68 826.25,-755.68 822.75,-765.68 829.75,-765.68"/>
</a>
</g>
</g>
<!-- Node0x21c0ad0cab0 -->
<g id="node4" class="node">
<title>Node0x21c0ad0cab0</title>
<polygon fill="#3d50c3" fill-opacity="0.439216" stroke="#3d50c3" points="833.02,-894.3 833.02,-943.9 1193.48,-943.9 1193.48,-894.3 833.02,-894.3"/>
<text text-anchor="start" x="841.02" y="-927.3" font-family="Courier,monospace" font-size="14.00">"pierwszy_przeskakiwanyprogram_4:6-4:52":</text>
<polyline fill="none" stroke="#3d50c3" points="833.02,-919.1 1193.48,-919.1"/>
<text text-anchor="start" x="841.02" y="-902.5" font-family="Courier,monospace" font-size="14.00">br label %"pierwszy_po_program_4:6-4:52"</text>
</g>
<!-- Node0x21c0ad0cab0&#45;&gt;Node0x21c0acfa160 -->
<g id="edge3" class="edge">
<title>Node0x21c0ad0cab0-&gt;Node0x21c0acfa160</title>
<g id="a_edge3"><a xlink:title="pierwszy_przeskakiwanyprogram_4:6-4:52 -&gt; pierwszy_po_program_4:6-4:52&#xA;Probability 100.00%">
<path fill="none" stroke="black" d="M964.61,-893.91C945.54,-884.43 923.22,-873.32 902.13,-862.84"/>
<polygon fill="black" stroke="black" points="903.77,-859.74 893.26,-858.42 900.65,-866.01 903.77,-859.74"/>
</a>
</g>
</g>
<!-- Node0x21c0ad0c2d0 -->
<g id="node6" class="node">
<title>Node0x21c0ad0c2d0</title>
<polygon fill="#b70d28" fill-opacity="0.439216" stroke="#b70d28" points="164,-248.9 164,-541.7 818.5,-541.7 818.5,-248.9 164,-248.9"/>
<text text-anchor="start" x="172" y="-525.1" font-family="Courier,monospace" font-size="14.00">"pierwszyPetli_5:14-9:4":</text>
<polyline fill="none" stroke="#b70d28" points="164,-516.9 818.5,-516.9"/>
<text text-anchor="start" x="172" y="-500.3" font-family="Courier,monospace" font-size="14.00">%argw_wt = load ptr, ptr %argw, align 8</text>
<text text-anchor="start" x="172" y="-483.5" font-family="Courier,monospace" font-size="14.00"> %i_wt1 = load i64, ptr %i, align 4</text>
<text text-anchor="start" x="172" y="-466.7" font-family="Courier,monospace" font-size="14.00"> %"ind_adr_7:22-7:28" = getelementptr inbounds ptr, ptr %argw_wt, i64 %i_wt1</text>
<text text-anchor="start" x="172" y="-449.9" font-family="Courier,monospace" font-size="14.00"> %"ind_wt_7:22-7:28" = load ptr, ptr %"ind_adr_7:22-7:28", align 8</text>
<text text-anchor="start" x="172" y="-433.1" font-family="Courier,monospace" font-size="14.00"> %"call_7:17-7:29" = call i32 @atoi(ptr %"ind_wt_7:22-7:28")</text>
<text text-anchor="start" x="172" y="-416.3" font-family="Courier,monospace" font-size="14.00"> %"sext7:17-7:29" = sext i32 %"call_7:17-7:29" to i64</text>
<text text-anchor="start" x="172" y="-399.5" font-family="Courier,monospace" font-size="14.00"> store i64 %"sext7:17-7:29", ptr %w, align 4</text>
<text text-anchor="start" x="172" y="-382.7" font-family="Courier,monospace" font-size="14.00"> %w_wt = load i64, ptr %w, align 4</text>
<text text-anchor="start" x="172" y="-365.9" font-family="Courier,monospace" font-size="14.00"> %"opProstai%" = srem i64 %w_wt, 3</text>
<text text-anchor="start" x="172" y="-349.1" font-family="Courier,monospace" font-size="14.00"> %"opProstai==" = icmp eq i64 %"opProstai%", 0</text>
<text text-anchor="start" x="172" y="-332.3" font-family="Courier,monospace" font-size="14.00"> %"opprostai_rozsz==" = zext i1 %"opProstai==" to i64</text>
<text text-anchor="start" x="172" y="-315.5" font-family="Courier,monospace" font-size="14.00"> %j__zwezenie_dla_warunku = icmp ne i64 %"opprostai_rozsz==", 0</text>
<text text-anchor="start" x="172" y="-298.7" font-family="Courier,monospace" font-size="14.00"> br i1 %j__zwezenie_dla_warunku, label %"j__gdyPrawdziwe_8:8-8:39", label</text>
<text text-anchor="start" x="172" y="-281.9" font-family="Courier,monospace" font-size="14.00">... %"j_poWarunkowej8:8-8:39"</text>
<polyline fill="none" stroke="#b70d28" points="164,-273.7 818.5,-273.7"/>
<text text-anchor="middle" x="327.2" y="-257.1" font-family="Courier,monospace" font-size="14.00">T</text>
<polyline fill="none" stroke="#b70d28" points="490.4,-248.9 490.4,-273.7"/>
<text text-anchor="middle" x="654.1" y="-257.1" font-family="Courier,monospace" font-size="14.00">F</text>
</g>
<!-- Node0x21c0ad0c090&#45;&gt;Node0x21c0ad0c2d0 -->
<g id="edge5" class="edge">
<title>Node0x21c0ad0c090:s0-&gt;Node0x21c0ad0c2d0</title>
<g id="a_edge5"><a xlink:title="ptl_oblicznie_warunku_5:14-9:4 -&gt; pierwszyPetli_5:14-9:4&#xA;Probability 96.88%">
<path fill="none" stroke="black" d="M510.6,-591.1C486.03,-591.1 473.79,-575.56 468.89,-553.26"/>
<polygon fill="black" stroke="black" points="472.39,-553 467.33,-543.69 465.48,-554.12 472.39,-553"/>
</a>
</g>
</g>
<!-- Node0x21c0ad0cbd0 -->
<g id="node7" class="node">
<title>Node0x21c0ad0cbd0</title>
<polygon fill="#d65244" fill-opacity="0.439216" stroke="#3d50c3" points="894.44,-370.5 894.44,-420.1 1070.06,-420.1 1070.06,-370.5 894.44,-370.5"/>
<text text-anchor="start" x="902.44" y="-403.5" font-family="Courier,monospace" font-size="14.00">"poPetli_5:14-9:4":</text>
<polyline fill="none" stroke="#3d50c3" points="894.44,-395.3 1070.06,-395.3"/>
<text text-anchor="start" x="902.44" y="-378.7" font-family="Courier,monospace" font-size="14.00">ret i64 0</text>
</g>
<!-- Node0x21c0ad0c090&#45;&gt;Node0x21c0ad0cbd0 -->
<g id="edge6" class="edge">
<title>Node0x21c0ad0c090:s1-&gt;Node0x21c0ad0cbd0</title>
<g id="a_edge6"><a xlink:title="ptl_oblicznie_warunku_5:14-9:4 -&gt; poPetli_5:14-9:4&#xA;Probability 3.12%">
<path fill="none" stroke="black" d="M983.2,-578.2C983.2,-527.19 982.83,-468.14 982.55,-431.5"/>
<polygon fill="black" stroke="black" points="986.05,-431.91 982.47,-421.94 979.05,-431.97 986.05,-431.91"/>
</a>
</g>
</g>
<!-- Node0x21c0ad0c5d0 -->
<g id="node8" class="node">
<title>Node0x21c0ad0c5d0</title>
<polygon fill="#bb1b2c" fill-opacity="0.439216" stroke="#b70d28" points="0,-111.9 0,-211.9 654.5,-211.9 654.5,-111.9 0,-111.9"/>
<text text-anchor="start" x="8" y="-195.3" font-family="Courier,monospace" font-size="14.00">"j__gdyPrawdziwe_8:8-8:39":</text>
<polyline fill="none" stroke="#b70d28" points="0,-187.1 654.5,-187.1"/>
<text text-anchor="start" x="8" y="-170.5" font-family="Courier,monospace" font-size="14.00">%w_wt2 = load i64, ptr %w, align 4</text>
<text text-anchor="start" x="8" y="-153.7" font-family="Courier,monospace" font-size="14.00"> %"call_8:22-8:37" = call i32 (ptr, ...) @printf(ptr @"napis_%x _8:29-8:33",</text>
<text text-anchor="start" x="8" y="-136.9" font-family="Courier,monospace" font-size="14.00">... i64 %w_wt2)</text>
<text text-anchor="start" x="8" y="-120.1" font-family="Courier,monospace" font-size="14.00"> br label %"j_poWarunkowej8:8-8:39"</text>
</g>
<!-- Node0x21c0ad0c2d0&#45;&gt;Node0x21c0ad0c5d0 -->
<g id="edge7" class="edge">
<title>Node0x21c0ad0c2d0:s0-&gt;Node0x21c0ad0c5d0</title>
<g id="a_edge7"><a xlink:title="pierwszyPetli_5:14-9:4 -&gt; j__gdyPrawdziwe_8:8-8:39&#xA;Probability 62.50%">
<path fill="none" stroke="black" d="M327.2,-248.4C327.2,-240.34 327.2,-231.85 327.21,-223.48"/>
<polygon fill="black" stroke="black" points="330.71,-223.7 327.21,-213.69 323.71,-223.69 330.71,-223.7"/>
</a>
</g>
</g>
<!-- Node0x21c0ad0c450 -->
<g id="node9" class="node">
<title>Node0x21c0ad0c450</title>
<polygon fill="#b70d28" fill-opacity="0.439216" stroke="#b70d28" points="497.82,-25.3 497.82,-74.9 866.68,-74.9 866.68,-25.3 497.82,-25.3"/>
<text text-anchor="start" x="505.82" y="-58.3" font-family="Courier,monospace" font-size="14.00">"j_poWarunkowej8:8-8:39":</text>
<polyline fill="none" stroke="#b70d28" points="497.82,-50.1 866.68,-50.1"/>
<text text-anchor="start" x="505.82" y="-33.5" font-family="Courier,monospace" font-size="14.00">br label %"ptl_oblicznie_warunku_5:14-9:4"</text>
</g>
<!-- Node0x21c0ad0c2d0&#45;&gt;Node0x21c0ad0c450 -->
<g id="edge8" class="edge">
<title>Node0x21c0ad0c2d0:s1-&gt;Node0x21c0ad0c450</title>
<g id="a_edge8"><a xlink:title="pierwszyPetli_5:14-9:4 -&gt; j_poWarunkowej8:8-8:39&#xA;Probability 37.50%">
<path fill="none" stroke="black" d="M654.1,-248.4C654.1,-231.89 660.25,-228.63 663.25,-212.4 671.21,-169.43 676.49,-119.38 679.43,-86.56"/>
<polygon fill="black" stroke="black" points="682.9,-87.07 680.27,-76.8 675.92,-86.47 682.9,-87.07"/>
</a>
</g>
</g>
<!-- Node0x21c0ad0c5d0&#45;&gt;Node0x21c0ad0c450 -->
<g id="edge9" class="edge">
<title>Node0x21c0ad0c5d0-&gt;Node0x21c0ad0c450</title>
<g id="a_edge9"><a xlink:title="j__gdyPrawdziwe_8:8-8:39 -&gt; j_poWarunkowej8:8-8:39&#xA;Probability 100.00%">
<path fill="none" stroke="black" d="M487.1,-111.46C523.47,-100.21 560.85,-88.65 593.03,-78.7"/>
<polygon fill="black" stroke="black" points="593.77,-82.13 602.29,-75.83 591.7,-75.44 593.77,-82.13"/>
</a>
</g>
</g>
<!-- Node0x21c0ad0c450&#45;&gt;Node0x21c0ad0c090 -->
<g id="edge10" class="edge">
<title>Node0x21c0ad0c450-&gt;Node0x21c0ad0c090</title>
<g id="a_edge10"><a xlink:title="j_poWarunkowej8:8-8:39 -&gt; ptl_oblicznie_warunku_5:14-9:4&#xA;Probability 100.00%">
<path fill="none" stroke="black" d="M708.16,-75.15C743.12,-109.58 803.74,-176.7 827.25,-248.4 861.63,-353.22 854.72,-480.99 843.5,-567.24"/>
<polygon fill="black" stroke="black" points="840.04,-566.72 842.17,-577.1 846.97,-567.66 840.04,-566.72"/>
</a>
</g>
</g>
</g>
</svg>